<svg width="268" height="252" viewBox="0 0 268 252" fill="none" xmlns="http://www.w3.org/2000/svg">
<path fill-rule="evenodd" clip-rule="evenodd" d="M93.4307 159.676H82.0957L79.2188 150.514H64.1494L61.2783 159.676H49.9434L64.666 116.039H78.708L93.4307 159.676ZM66.6592 142.503H76.7041L71.8467 127.034H71.5059L66.6592 142.503Z" fill="black"/>
<path d="M122.27 143.057H122.78L133.86 116.039H146.921V159.676H136.651V132.872H136.289L125.807 159.398H119.244L108.761 132.723H108.398V159.676H98.1289V116.039H111.189L122.27 143.057Z" fill="black"/>
<path d="M169.501 144.633H169.863L177.385 116.039H186.888L194.409 144.697H194.771L201.376 116.039H213.01L200.332 159.676H190.169L182.307 133.213H181.966L174.104 159.676H163.962L151.263 116.039H162.918L169.501 144.633Z" fill="black"/>
<path d="M249.557 126.767L181.551 215.863L35.2092 202.519L22.2094 110.199L150.561 26.4797L249.557 126.767ZM28.6826 113.139L40.4878 196.976L178.793 209.587L241.623 127.271L149.733 34.1823L28.6826 113.139Z" fill="black"/>
</svg>
