<svg width="289" height="157" viewBox="0 0 289 157" fill="none" xmlns="http://www.w3.org/2000/svg">
<rect width="289" height="157" fill="white"/>
<path d="M211.716 105.051V53.1029H228.28L226.781 82.111H227.281L238.101 53.1029H250.669V82.111H251.168L260.074 53.1029H276.637L259.741 105.051H238.767V85.9344H237.851L230.943 105.051H211.716ZM209.219 56.8432L176.509 53.1029H209.219V56.8432ZM209.219 64.8225L176.509 61.0822H209.219V64.8225ZM209.219 72.8018L176.509 69.0615H209.219V72.8018ZM209.219 80.7811L176.509 77.0408H209.219V80.7811ZM209.219 88.7604L176.509 85.0201H209.219V88.7604ZM209.219 96.7397L176.509 92.9994H209.219V96.7397ZM209.219 104.802L176.509 101.062H209.219V104.802Z" fill="black"/>
<path d="M122.289 105.051L134.441 53.1029H155.082L156.58 79.5343H157.163L167.983 53.1029H188.625L182.466 105.051H165.902L169.398 79.8668H168.816L158.412 105.051H146.343L144.595 79.8668H144.179L138.769 105.051H122.289ZM131.028 56.8432L96.154 53.1029H131.861L131.028 56.8432ZM129.114 64.8225L94.2396 61.0822H130.029L129.114 64.8225ZM127.283 72.8018L92.3253 69.0615H128.115L127.283 72.8018ZM125.368 80.7811L90.411 77.0408H126.284L125.368 80.7811ZM123.537 88.7604L88.4966 85.0201H124.37L123.537 88.7604ZM121.623 96.7397L86.5823 92.9994H122.539L121.623 96.7397ZM119.792 104.802L84.668 101.062H120.624L119.792 104.802Z" fill="black"/>
<path d="M50.6605 105.051L72.5505 53.1029H97.0207L100.683 105.051H83.9533L83.6204 96.8228H70.5529L67.3069 105.051H50.6605ZM68.3057 56.677L34.347 53.1029H69.8039L68.3057 56.677ZM64.8932 64.6563L30.9345 61.0822H66.3913L64.8932 64.6563ZM61.5639 72.7187L27.522 69.0615H63.0621L61.5639 72.7187ZM75.7133 83.6071H82.3719V69.0615H81.5396L75.7133 83.6071ZM58.1514 80.698L24.1095 77.0408H59.7328L58.1514 80.698ZM54.8221 88.6773L20.697 85.0201H56.3203L54.8221 88.6773ZM51.4096 96.6566L17.2845 92.9994H52.991L51.4096 96.6566ZM47.9971 104.719L13.8719 101.062H49.5785L47.9971 104.719Z" fill="black"/>
</svg>
