<svg width="157" height="157" viewBox="0 0 157 157" fill="none" xmlns="http://www.w3.org/2000/svg">
<rect width="157" height="157" fill="white"/>
<path d="M38.1182 120.185H119.276L113.83 110.752H127.884L140.355 132.354H17.0391L29.5107 110.752H43.5645L38.1182 120.185ZM54.6328 103.449H46.335L44.6982 98.0283H35.3584L33.7217 103.449H25.4238L34.7725 75.125H45.2832L54.6328 103.449ZM73.5146 91.168H73.8467L80.4297 75.125H90V103.449H82.4766V87.0742H82.2549L75.9482 103.229H71.4121L65.1055 86.9639H64.8848V103.449H57.3604V75.125H66.9316L73.5146 91.168ZM104.93 92.5518H105.15L109.742 75.125H116.491L121.083 92.6064H121.305L125.177 75.125H133.752L125.398 103.449H118.041L113.228 87.6279H113.007L108.193 103.449H100.836L92.4824 75.125H101.058L104.93 92.5518ZM37.0957 92.2744H42.9609L40.1387 82.9258H39.918L37.0957 92.2744ZM103.29 68.1553H89.2373L78.6973 49.8984L68.1572 68.1553H54.1045L78.6973 25.5586L103.29 68.1553Z" fill="black"/>
</svg>
