<svg width="157" height="157" viewBox="0 0 157 157" fill="none" xmlns="http://www.w3.org/2000/svg">
<rect width="157" height="157" fill="white"/>
<path d="M54.8184 92H47.1475L45.6348 86.9883H37.001L35.4883 92H27.8184L36.46 65.8184H46.1758L54.8184 92ZM72.2715 80.6475H72.5781L78.6641 65.8184H87.5107V92H80.5557V76.8633H80.3516L74.5215 91.7959H70.3281L64.499 76.7617H64.2939V92H57.3398V65.8184H66.1865L72.2715 80.6475ZM101.311 81.9258H101.516L105.76 65.8184H111.998L116.242 81.9775H116.447L120.026 65.8184H127.953L120.231 92H113.43L108.981 77.375H108.776L104.328 92H97.5264L89.8047 65.8184H97.7314L101.311 81.9258ZM38.6064 81.6709H44.0293L41.4199 73.0283H41.2158L38.6064 81.6709Z" fill="black"/>
<path d="M131 26H26V131H131V26ZM139 139H18V18H139V139Z" fill="black"/>
</svg>
