<svg width="280" height="157" viewBox="0 0 280 157" fill="none" xmlns="http://www.w3.org/2000/svg">
<path d="M153.726 100.616H140.941L138.42 92.2646H124.031L121.51 100.616H108.726L123.129 56.9805H139.322L153.726 100.616ZM182.814 81.6963H183.326L193.468 56.9805H208.212V100.616H196.621V75.3896H196.28L186.564 100.275H179.576L169.86 75.2188H169.52V100.616H157.929V56.9805H172.673L182.814 81.6963ZM231.213 83.8271H231.554L238.628 56.9805H249.025L256.1 83.9121H256.44L262.406 56.9805H275.616L262.747 100.616H251.412L243.997 76.2412H243.656L236.241 100.616H224.906L212.037 56.9805H225.247L231.213 83.8271ZM126.707 83.4004H135.744L131.396 68.9971H131.055L126.707 83.4004Z" fill="black"/>
<path d="M0.500244 118.539L31.5707 65.1606L37.3676 55.2015L46.6527 39.25L51.1624 31.5024L55.7089 39.25L75.4349 72.8645L81.2552 82.7827L102.447 118.896L0.500244 118.539ZM51.2334 51.3804L17.8916 108.661L84.9859 108.896L51.2334 51.3804Z" fill="black"/>
<path fill-rule="evenodd" clip-rule="evenodd" d="M31.5707 65.1606L61.5 117L81.2552 82.7827L75.4349 72.8645L61.5 97.0009L37.3676 55.2015L31.5707 65.1606ZM46.6527 39.25L55.7089 39.25L51.1624 31.5024L46.6527 39.25Z" fill="black"/>
</svg>
